<svg width="100" height="100" viewBox="0 0 100 100" fill="none" xmlns="http://www.w3.org/2000/svg">
<path d="M81.25 35.1562H18.75C17.2996 35.1562 15.9086 35.7324 14.883 36.758C13.8574 37.7836 13.2812 39.1746 13.2812 40.625V78.125C13.2812 79.5754 13.8574 80.9664 14.883 81.992C15.9086 83.0176 17.2996 83.5938 18.75 83.5938H81.25C82.7004 83.5938 84.0914 83.0176 85.117 81.992C86.1426 80.9664 86.7188 79.5754 86.7188 78.125V40.625C86.7188 39.1746 86.1426 37.7836 85.117 36.758C84.0914 35.7324 82.7004 35.1562 81.25 35.1562ZM82.0312 78.125C82.0312 78.3322 81.9489 78.5309 81.8024 78.6774C81.6559 78.8239 81.4572 78.9062 81.25 78.9062H18.75C18.5428 78.9062 18.3441 78.8239 18.1976 78.6774C18.0511 78.5309 17.9688 78.3322 17.9688 78.125V40.625C17.9688 40.4178 18.0511 40.2191 18.1976 40.0726C18.3441 39.9261 18.5428 39.8438 18.75 39.8438H81.25C81.4572 39.8438 81.6559 39.9261 81.8024 40.0726C81.9489 40.2191 82.0312 40.4178 82.0312 40.625V78.125ZM19.5312 25C19.5312 24.3784 19.7782 23.7823 20.2177 23.3427C20.6573 22.9032 21.2534 22.6563 21.875 22.6562H78.125C78.7466 22.6563 79.3427 22.9032 79.7823 23.3427C80.2218 23.7823 80.4688 24.3784 80.4688 25C80.4688 25.6216 80.2218 26.2177 79.7823 26.6573C79.3427 27.0968 78.7466 27.3438 78.125 27.3438H21.875C21.2534 27.3438 20.6573 27.0968 20.2177 26.6573C19.7782 26.2177 19.5312 25.6216 19.5312 25ZM25.7812 12.5C25.7812 11.8784 26.0282 11.2823 26.4677 10.8427C26.9073 10.4032 27.5034 10.1563 28.125 10.1562H71.875C72.4966 10.1562 73.0927 10.4032 73.5323 10.8427C73.9718 11.2823 74.2188 11.8784 74.2188 12.5C74.2188 13.1216 73.9718 13.7177 73.5323 14.1573C73.0927 14.5968 72.4966 14.8437 71.875 14.8438H28.125C27.5034 14.8437 26.9073 14.5968 26.4677 14.1573C26.0282 13.7177 25.7812 13.1216 25.7812 12.5Z" fill="white"/>
</svg>
